# xmcd
#
# Track frame offsets:
#	150
#	11108
#	23197
#	42887
#	52333
#	63934
#	76332
#	88182
#	101770
#	111508
#	122253
#	135219
#	150049
#	161883
#	175204
#	191730
#	207851
#	221092
#	235455
#	248263
#	259063
#	272864
#	293350
#	306230
#	328111
#	340907
#
# Disc length: 4793 seconds
#
# Revision: 2
# Processed by: cddbd v1.5.2PL0 Copyright (c) Steve Scherf et al.
# Submitted via: audiograbber 1.83.01
#
DISCID=7112b71a
DTITLE=Various Artist - 101 Country Hits - CD 4
DYEAR=2007
DGENRE=Country
TTITLE0=Jim Reeves - He'll Have To Go
TTITLE1=Eddy Arnold - Make The World Go Away
TTITLE2=Marty Robbins - El Paso
TTITLE3=Frankie Lane - Rawhide
TTITLE4=Don Gibson - Sea Of Heartbreak
TTITLE5=Johnny Cash - I Walk The Line
TTITLE6=Tennessee Erny Ford - Sixteen Tons
TTITLE7=Jimmy Dean - Big Bad John
TTITLE8=Ned Miller - From A Jack To A King
TTITLE9=Slim Whitman - Rose Marie
TTITLE10=Faron Young - Your Cheatin' Heart
TTITLE11=George Jones - He Stopped Loving Her Today
TTITLE12=Skeeter Davies - The End Of The World
TTITLE13=Glen Campbell - Honey Come Back
TTITLE14=Kenny Rogers - Lucille
TTITLE15=Billie Joe Spears - Blanket on the ground
TTITLE16=Crsytal Gayle - Talking In Your Sleep
TTITLE17=Dr. Hook - If Not You
TTITLE18=Charley Pride - Crystal Chandeliers
TTITLE19=The Everly Brothers - Bye Bye Love
TTITLE20=Willie Nelson - Funny How Time Slips Away
TTITLE21=Kris Kristofferson - Sunday Morning Comin' Down
TTITLE22=Bobby Bare - Four Strong Winds
TTITLE23=Nitty Gritty Dirt Band - Will The Circle Be Unbroken
TTITLE24=Tanya Tucker - Would You Lay With Me (In A Field Of Stone)
TTITLE25=Joe South - Walk A Mile In My Shoes
EXTD=
EXTT0=
EXTT1=
EXTT2=
EXTT3=
EXTT4=
EXTT5=
EXTT6=
EXTT7=
EXTT8=
EXTT9=
EXTT10=
EXTT11=
EXTT12=
EXTT13=
EXTT14=
EXTT15=
EXTT16=
EXTT17=
EXTT18=
EXTT19=
EXTT20=
EXTT21=
EXTT22=
EXTT23=
EXTT24=
EXTT25=
PLAYORDER=
